<svg xmlns="http://www.w3.org/2000/svg" width="136" height="44" fill="none"><path fill="#000" fill-rule="evenodd" d="M21.991 5.844c.224 0 .422.154 1.178.885a35.865 35.865 0 0 1 1.693 1.762c.438.49 1.048 1.246 1.358 1.675.309.439.79 1.178 1.065 1.65.275.473.653 1.17.825 1.547.172.378.378.834.593 1.332l.963-.515a18.683 18.683 0 0 1 2.13-.894 18.043 18.043 0 0 1 2.106-.559 20.12 20.12 0 0 1 1.848-.232c.619-.043.98-.034 1.16.035.138.051.31.189.37.292.086.155.103 1.35.077 5.955-.017 3.163-.051 5.844-.146 6.145l6.377.043.206.24c.172.198.206.318.206.834 0 .327-.06.963-.138 1.4-.068.43-.189 1.023-.257 1.307a16.84 16.84 0 0 1-.335 1.074 15.5 15.5 0 0 1-.542 1.29 15.028 15.028 0 0 1-.773 1.374c-.24.353-.696.954-1.023 1.332-.327.378-.885.937-1.238 1.246-.352.31-.876.714-1.16.903a20.2 20.2 0 0 1-1.28.739c-.43.223-1.048.507-1.375.636-.335.12-.834.283-1.117.352-.284.078-.92.206-1.418.301-.851.155-1.461.163-11.344.163s-10.493-.008-11.344-.163a25.02 25.02 0 0 1-1.418-.3 13.28 13.28 0 0 1-1.117-.353 15.351 15.351 0 0 1-1.375-.636 18.033 18.033 0 0 1-1.28-.74 13.58 13.58 0 0 1-1.16-.901 15.42 15.42 0 0 1-1.238-1.247c-.327-.378-.782-.98-1.023-1.332a15.033 15.033 0 0 1-.773-1.375c-.19-.404-.456-1.04-.585-1.418-.128-.378-.3-.996-.378-1.375-.077-.378-.18-.868-.223-1.091-.052-.232-.086-.722-.086-1.1 0-.602.026-.713.412-1.16l6.377-.043-.06-.19c-.034-.11-.069-2.792-.086-5.955-.026-4.606-.009-5.8.077-5.955a.804.804 0 0 1 .37-.292c.172-.07.533-.078 1.117-.035a23.14 23.14 0 0 1 1.848.232c.541.095 1.512.344 2.148.559.636.215 1.599.619 3.094 1.41l.103-.241a31.7 31.7 0 0 1 .455-1.006c.198-.43.585-1.16.86-1.633a27.08 27.08 0 0 1 1.066-1.65c.309-.43.902-1.16 1.306-1.632a51.408 51.408 0 0 1 1.693-1.77c.79-.766.997-.92 1.211-.92zm-2.707 4.77c-.292.377-.713.979-.936 1.331a23.68 23.68 0 0 0-1.555 2.99c-.173.448-.224.646-.147.688.052.035.413.327.8.662.386.327.945.868 1.237 1.203.292.327.739.868.988 1.203.258.327.662.946.911 1.375.25.422.593 1.066.748 1.418.163.353.36.851.438 1.092.077.249.18.455.232.455.043 0 .146-.206.223-.455.078-.24.31-.8.516-1.22.198-.43.567-1.1.808-1.504.24-.404.619-.963.842-1.247.215-.283.636-.79.928-1.117a13.81 13.81 0 0 1 1.238-1.203c.386-.335.747-.627.799-.662.077-.042.017-.266-.19-.773a19.625 19.625 0 0 0-.712-1.53 22.973 22.973 0 0 0-.972-1.633 25.067 25.067 0 0 0-.98-1.374 40.927 40.927 0 0 0-1.434-1.616c-.542-.576-1.014-1.049-1.057-1.049-.052 0-.559.516-1.143 1.143a30.453 30.453 0 0 0-1.582 1.822zm-11.18 8.61c.017 2.922.06 5.397.086 5.5.06.19.094.198 1.194.198.628 0 1.513.043 1.96.086.447.043 1.108.137 1.46.206.353.077.946.232 1.307.352.37.12 1.031.379 1.46.585.44.206 1.127.593 1.53.86.405.266 1.006.73 1.341 1.022.335.3.851.808 1.143 1.143.292.326.774.945 1.057 1.375.284.42.533.79.559.816.026.026.026-1.194 0-2.707-.035-2.45-.06-2.844-.224-3.61a20.382 20.382 0 0 0-.455-1.632c-.138-.43-.447-1.16-.67-1.633a17.033 17.033 0 0 0-.92-1.607 21.344 21.344 0 0 0-1.1-1.444c-.335-.386-.92-.98-1.315-1.315a19.028 19.028 0 0 0-1.375-1.074c-.36-.258-1.126-.687-1.693-.962a19.064 19.064 0 0 0-1.719-.73 22.823 22.823 0 0 0-1.418-.387 16.29 16.29 0 0 0-1.289-.215 7.641 7.641 0 0 1-.756-.095l-.197-.043.034 5.311zm25.627-4.967c-.422.095-1.083.275-1.462.395-.378.12-1.151.447-1.718.73a15.62 15.62 0 0 0-1.685.963c-.37.25-.962.714-1.332 1.032-.37.318-.893.816-1.16 1.117-.258.3-.679.816-.928 1.143-.25.335-.653.97-.91 1.418-.25.447-.602 1.168-.774 1.59a15.943 15.943 0 0 0-.894 3.438c-.06.472-.095 1.649-.077 3.041l.025 2.26c.825-1.246 1.307-1.882 1.607-2.217.301-.335.8-.833 1.1-1.1.31-.275.946-.756 1.418-1.074a14.821 14.821 0 0 1 1.762-.971 16.79 16.79 0 0 1 1.547-.576c.36-.094.98-.24 1.375-.31.404-.077 1.495-.163 2.423-.197 1.59-.052 1.702-.069 1.762-.232.034-.095.078-2.56.095-5.474.017-2.922 0-5.303-.043-5.303-.035.01-.353.052-.714.086-.352.043-.988.155-1.418.241zM1.606 27.285c.06.43.232 1.16.378 1.633.146.473.438 1.212.653 1.633.215.43.585 1.065.834 1.418.24.352.808 1.014 1.255 1.46.455.448 1.151 1.04 1.546 1.307.404.266 1.014.619 1.358.79.344.172.963.422 1.375.568.413.137 1.083.318 1.478.395.62.12 1.513.146 5.741.172l5.002.034c0-.3-.06-.73-.13-1.16a13.199 13.199 0 0 0-.395-1.547c-.137-.42-.42-1.1-.627-1.504a16.03 16.03 0 0 0-.782-1.332c-.223-.326-.825-1.014-1.323-1.512-.499-.499-1.212-1.109-1.599-1.358-.378-.25-.997-.602-1.375-.782-.378-.18-.937-.413-1.246-.516a15.05 15.05 0 0 0-1.332-.36c-.713-.164-1.126-.181-5.81-.215-2.767-.026-5.053-.009-5.078.034-.018.034.008.421.077.842zm29.416-.524c-.446.12-1.125.344-1.503.498a13.59 13.59 0 0 0-1.401.722c-.396.232-.997.662-1.332.946-.344.283-.851.773-1.135 1.074-.283.3-.704.825-.928 1.151a12.38 12.38 0 0 0-.79 1.332c-.207.404-.49 1.083-.628 1.504-.146.43-.318 1.126-.395 1.547-.077.43-.138.86-.138.971v.19c9.239-.06 10.133-.087 10.743-.207a14.127 14.127 0 0 0 1.486-.395 14.75 14.75 0 0 0 1.375-.567c.344-.172.954-.525 1.35-.791.404-.267 1.1-.86 1.555-1.306.447-.447 1.014-1.109 1.255-1.461.24-.353.619-.989.833-1.418.207-.421.507-1.16.653-1.633.146-.473.318-1.203.379-1.633.06-.42.103-.8.085-.833-.017-.035-2.088-.06-4.606-.052-2.518 0-4.907.043-5.31.077a14.53 14.53 0 0 0-1.548.284z" clip-rule="evenodd"/><path fill="#000" d="M56 11.25c2.425-.167 4.568-.25 6.429-.25 5.164 0 7.746 1.719 7.746 5.156 0 1.292-.376 2.407-1.129 3.344-.753.917-1.955 1.542-3.606 1.875 1.588.188 2.843.667 3.763 1.438.92.77 1.38 2.114 1.38 4.03 0 4.022-2.582 6.032-7.746 6.032H56V11.25zm2.603 21.313h4.234c1.86 0 3.177-.48 3.951-1.438.794-.98 1.192-2.469 1.192-4.469 0-2-.398-3.333-1.192-4-.794-.666-1.976-1.02-3.544-1.062h-4.641v10.968zm3.826-21.25c-1.213 0-2.488.072-3.826.218v9.75h4.641c2.948-.125 4.422-1.812 4.422-5.062 0-1.584-.439-2.792-1.317-3.625-.878-.854-2.185-1.281-3.92-1.281zM75.077 25.25c0 2.583.45 4.48 1.349 5.688.92 1.208 2.122 1.812 3.606 1.812 2.09 0 3.952-.313 5.582-.938l.094.22c-1.672.645-3.564.968-5.676.968-2.09 0-3.795-.625-5.112-1.875-1.317-1.25-1.975-3.177-1.975-5.781 0-2.604.69-4.625 2.07-6.063 1.38-1.437 3.135-2.156 5.268-2.156 1.714 0 3.157.51 4.328 1.531 1.17 1.021 1.756 2.532 1.756 4.532v.312H75.17a15.796 15.796 0 0 0-.094 1.75zm9.157-2c-.02-2-.407-3.48-1.16-4.438-.753-.958-1.725-1.437-2.916-1.437-1.192 0-2.258.52-3.2 1.563-.92 1.041-1.505 2.479-1.755 4.312h9.031zm17.312 9.625c-1.422 0-2.394-.27-2.916-.813-.481-.458-.722-.854-.722-1.187v-.656C96.884 32.073 95.243 33 92.985 33c-2.635 0-4.13-1.188-4.485-3.563a4.53 4.53 0 0 1-.063-.75c0-.27.042-.562.126-.875.084-.312.324-.656.721-1.03.795-.75 2.54-1.21 5.237-1.376a19.965 19.965 0 0 1 1.85-.093c.565 0 1.077.02 1.537.062v-5.188c-.041-.02-.041-.114 0-.28.042-.188 0-.417-.125-.688a3.613 3.613 0 0 0-.44-.844c-.187-.27-.522-.5-1.003-.688-.48-.208-1.108-.312-1.881-.312-.774 0-1.683.146-2.729.438-1.024.27-1.777.541-2.258.812l-.125-.219c1.86-.854 3.753-1.281 5.676-1.281 2.154 0 3.575.385 4.265 1.156.544.604.816 1.24.816 1.907v10.468c0 .604.115 1.073.345 1.407.25.312.501.479.752.5l.345.062h.972v.25h-.972zm-8.06-.125c1.109 0 2.102-.375 2.98-1.125.899-.77 1.38-1.51 1.442-2.219v-3.781a23.407 23.407 0 0 0-1.725-.063c-.564 0-1.129.032-1.693.094-1.589.188-2.624.542-3.105 1.063-.48.52-.721 1.24-.721 2.156 0 .167.01.354.031.563.189 2.208 1.119 3.312 2.792 3.312zm13.566-3.469c0 1.646.439 2.698 1.317 3.157.418.208.951.312 1.599.312 1.317 0 2.488-.5 3.513-1.5 1.045-1 1.609-1.927 1.693-2.781V17.25h2.195v13.406c0 .604.115 1.073.345 1.407.251.312.502.479.753.5l.345.062h.972v.25h-1.913c-.857 0-1.516-.188-1.976-.563-.439-.374-.669-.75-.69-1.124l-.031-.532v-1.343c-.376.895-1.045 1.74-2.007 2.53-.962.772-2.018 1.157-3.167 1.157-1.129 0-2.06-.104-2.792-.313-.71-.229-1.223-.541-1.536-.937-.544-.646-.816-1.48-.816-2.5v-12h2.196v12.031zM121.207 17.5v-.25h.658v-3.125h2.196v3.125h4.798v.25h-4.798v11.375c0 1.354.146 2.333.439 2.938.313.604.951.906 1.913.906.982 0 1.975-.198 2.979-.594l.094.25c-1.045.396-2.247.594-3.606.594-1.338 0-2.342-.271-3.011-.813-.669-.562-1.004-1.666-1.004-3.312V17.5h-.658zm12.88 15.375c-.857 0-1.516-.188-1.976-.563-.439-.374-.669-.75-.69-1.124l-.031-.532V17.25h2.195v13.406c0 .604.115 1.073.345 1.407.251.312.492.479.721.5l.377.062H136v.25h-1.913zm-2.509-19.125a1.269 1.269 0 0 1-.376-.938c0-.374.125-.687.376-.937a1.23 1.23 0 0 1 .941-.406c.376 0 .69.135.941.406.272.25.407.563.407.938 0 .374-.135.687-.407.937a1.28 1.28 0 0 1-.941.375 1.28 1.28 0 0 1-.941-.375z"/></svg>